<?xml version="1.0" encoding="UTF-8" standalone="no"?>
<!-- Created with Inkscape (http://www.inkscape.org/) -->

<svg
   version="1.1"
   id="svg1"
   width="1024"
   height="1024"
   viewBox="0 0 1024 1024"
   sodipodi:docname="ChatGPT Image 30_11_2025, 02_33_39.png"
   xmlns:inkscape="http://www.inkscape.org/namespaces/inkscape"
   xmlns:sodipodi="http://sodipodi.sourceforge.net/DTD/sodipodi-0.dtd"
   xmlns="http://www.w3.org/2000/svg"
   xmlns:svg="http://www.w3.org/2000/svg">
  <defs
     id="defs1" />
  <sodipodi:namedview
     id="namedview1"
     pagecolor="#ffffff"
     bordercolor="#000000"
     borderopacity="0.25"
     inkscape:showpageshadow="2"
     inkscape:pageopacity="0.0"
     inkscape:pagecheckerboard="0"
     inkscape:deskcolor="#d1d1d1">
    <inkscape:page
       x="0"
       y="0"
       width="1024"
       height="1024"
       id="page2"
       margin="0"
       bleed="0" />
  </sodipodi:namedview>
  <g
     inkscape:groupmode="layer"
     inkscape:label="Image"
     id="g1">
    <path
       style="fill:#b7947c;stroke:none;stroke-width:1.49707"
       d="m 68.54371,283.79293 c 56.78716,-39.845 89.6873,-103.30553 143.7189,-147.57478 52.82947,-43.284334 114.23259,-72.670217 179.64861,-91.316725 21.65693,-6.173222 44.23627,-8.065669 65.87116,-13.994659 20.91128,-5.7307 39.9889,-16.651 61.37995,-21.077977 C 509.96426,5.9690537 498.87264,9.6927046 489.2209,9.8228228 457.30757,10.253665 424.30739,16.885124 393.4083,24.60988 252.37434,59.868579 136.05242,155.62454 68.54371,283.79293 M 361.9698,563.74538 h 34.43265 V 310.74022 c 0,-64.1608 -1.21186,-129.51461 38.0679,-184.13983 60.17944,-83.689726 209.72983,-98.018635 278.65407,-16.46778 43.01879,50.89961 45.56941,116.22975 45.56941,179.64862 h 34.43265 c 0,-69.78838 -3.71653,-142.66473 -50.09763,-199.110554 C 661.64969,-8.3679853 486.32334,2.9250272 409.37015,101.15017 362.29463,161.23864 361.9698,235.12247 361.9698,307.74609 V 563.74538 M 745.22019,66.717514 c 35.12262,50.056246 89.51583,78.479866 129.8178,124.256966 46.41298,52.71833 81.08191,115.29419 101.14938,182.64278 6.47386,21.727 8.71745,43.97959 13.84681,65.87115 4.85626,20.72599 18.74422,38.21198 21.66482,59.88287 h 1.497 c 0,-134.00986 -59.29493,-264.21746 -157.1925,-354.93889 C 824.66259,115.3889 786.01137,81.567079 745.22019,66.717514 M 562.57741,638.59896 H 321.54884 c -55.76103,0 -113.32364,2.85233 -164.67789,-22.82796 C 41.122668,557.8894 36.048371,370.04014 138.90608,297.57963 c 36.52488,-25.73083 79.16084,-33.12309 122.75989,-36.10881 15.47543,-1.05975 32.96418,2.78572 47.90631,-1.63103 v -32.93558 c -54.18388,0 -110.48386,0.6494 -160.18669,25.08518 -136.600776,67.15815 -160.171749,280.37559 -38.92386,375.36537 74.60792,58.4504 179.40579,47.54289 267.97585,45.6977 45.80487,-0.95433 91.91805,3.67707 137.72942,0.54859 10.57325,-0.72202 35.38212,6.22313 44.01002,-0.61101 6.09547,-4.8281 2.40039,-27.11441 2.40039,-34.39108 M 462.27361,355.65238 v 32.9356 h 267.97586 c 60.11826,0 123.15535,-1.09157 173.66034,37.05023 89.39913,67.51498 89.59477,232.36842 1.49706,301.78361 -52.94073,41.7137 -121.63334,41.42241 -185.63691,41.42241 v 34.43264 c 68.97769,0 143.05771,-1.25694 200.60763,-44.75973 108.53341,-82.04173 114.71311,-273.47467 7.48536,-358.77623 -59.27933,-47.15777 -133.67242,-44.916 -205.09884,-44.09428 -86.80423,0.99872 -173.6798,0.006 -260.4905,0.006 m 163.18083,95.8126 V 729.9206 c 0,60.22278 1.44453,124.16064 -36.16309,175.1574 -63.17025,85.66002 -213.91247,90.20909 -282.01895,7.48536 -41.34177,-50.21458 -44.76697,-121.96822 -42.61227,-184.13984 -7.68255,0 -25.83774,-3.3675 -32.03227,1.53865 -4.2213,3.34328 -2.40039,13.20638 -2.40039,17.92328 0,18.12561 1.41688,35.86732 2.86591,53.89459 5.34866,66.5435 30.54217,131.72296 88.45546,169.62427 110.23408,72.14259 275.25107,30.66509 321.79078,-96.26775 C 663.65198,819.73659 659.8871,760.93587 659.8871,702.9733 V 451.46499 H 625.45444 M 14.649119,502.36543 c 0,141.1045 54.672063,280.50177 158.689621,377.39607 27.43938,25.5603 59.45148,53.68908 94.31552,68.73134 C 239.17244,907.57848 200.11054,880.95932 165.91232,845.19489 133.28294,811.07108 107.82417,771.27148 85.473555,729.92035 66.370765,694.57809 53.254399,653.84747 44.905914,614.64582 37.101609,577.99936 32.555389,535.79973 14.649119,502.36543 M 942.83367,764.35301 c -59.37364,45.07462 -99.30199,108.17039 -161.68377,151.16616 -38.64472,26.63532 -82.17072,47.59662 -127.2511,60.7827 -24.61919,7.2012 -50.43918,10.12152 -74.85359,17.41499 -18.82624,5.6242 -36.66619,14.55404 -55.39166,20.64714 v 1.4971 c 31.50722,-5.8495 64.0425,-4.0978 95.81259,-11.1149 99.09896,-21.88804 192.08902,-72.31435 259.4197,-149.07181 17.97555,-20.49226 34.68704,-41.4172 49.43799,-64.37409 4.69974,-7.31413 14.2241,-18.21979 14.50984,-26.94729 z"
       id="path1" />
  </g>
</svg>
