<?xml version="1.0" encoding="UTF-8" standalone="no"?>
<!-- Created with Inkscape (http://www.inkscape.org/) -->

<svg
   version="1.1"
   id="svg1"
   width="1024"
   height="1024"
   viewBox="0 0 1024 1024"
   sodipodi:docname="eyebrow.png"
   xmlns:inkscape="http://www.inkscape.org/namespaces/inkscape"
   xmlns:sodipodi="http://sodipodi.sourceforge.net/DTD/sodipodi-0.dtd"
   xmlns="http://www.w3.org/2000/svg"
   xmlns:svg="http://www.w3.org/2000/svg">
  <defs
     id="defs1" />
  <sodipodi:namedview
     id="namedview1"
     pagecolor="#ffffff"
     bordercolor="#000000"
     borderopacity="0.25"
     inkscape:showpageshadow="2"
     inkscape:pageopacity="0.0"
     inkscape:pagecheckerboard="0"
     inkscape:deskcolor="#d1d1d1">
    <inkscape:page
       x="0"
       y="0"
       width="1024"
       height="1024"
       id="page2"
       margin="0"
       bleed="0" />
  </sodipodi:namedview>
  <g
     inkscape:groupmode="layer"
     inkscape:label="Image"
     id="g1">
    <path
       style="fill:#000000"
       d="M 503.5,882.34121 C 406.55736,878.32439 315.58686,836.75763 235.70437,759.97852 211.19596,736.42225 185.50904,706.3407 166.55605,679 151.97956,657.97264 146.75238,649.12272 147.39555,646.56013 148.1394,643.5964 160.65878,622.81502 168.81813,611 c 20.25394,-29.3284 34.05003,-45.98623 57.62093,-69.57337 35.21661,-35.24085 67.14198,-58.72084 108.06094,-79.475 50.51584,-25.62173 97.682,-37.96036 156.78706,-41.01538 32.50657,-1.6802 68.76423,0.85744 101.21294,7.0838 102.24141,19.6184 195.66676,82.9633 263.23432,178.47995 7.46557,10.55368 21.97584,33.10505 24.73927,38.44893 l 1.63609,3.16385 -8.37337,12.69361 C 830.93573,725.68993 780.47697,777.72202 723.5,815.72712 c -56.08961,37.4132 -112.1191,58.41174 -172.5,64.64896 -15.41906,1.59276 -35.96888,2.44293 -47.5,1.96513 z M 540,842.97198 c 46.01166,-4.0447 83.54169,-14.33516 125.5,-34.41121 67.22846,-32.16721 124.05715,-83.5354 167.81667,-151.69165 l 5.54143,-8.63089 -2.67905,-2.48708 C 827.62269,637.80789 799.33645,618.25081 782,608.2918 678.07686,548.59264 555.7598,523.46866 447.5,539.58537 c -83.64488,12.45227 -164.16777,42.42767 -227.5,84.689 -13.38552,8.9321 -32,22.53967 -32,23.39267 0,1.7211 19.3526,30.0935 28.87501,42.33296 34.81932,44.75443 71.62528,77.66771 114.54912,102.43412 51.08349,29.47443 104.25564,46.38367 160.07587,50.90564 9.56719,0.77503 37.94781,0.55982 48.5,-0.36778 z m -44,-69.00729 c -28.33912,-3.47037 -55.54093,-13.97918 -76.02909,-29.37213 -38.09692,-28.62257 -60.16457,-70.15199 -63.57975,-119.65165 -0.68363,-9.90856 0.18071,-25.63015 1.52904,-27.81178 0.4247,-0.68719 3.8789,-2.07405 7.67599,-3.08192 3.7971,-1.00786 14.55381,-3.94849 23.90381,-6.53472 20.62464,-5.70482 51.85581,-13.49002 52.30694,-13.03888 0.18014,0.18014 -0.83048,2.61273 -2.24581,5.40576 -6.75436,13.32909 -9.10645,24.59121 -8.26054,39.55252 1.72519,30.51248 18.97929,55.88202 47.00832,69.11861 12.00481,5.66921 18.3619,6.94043 34.69109,6.93709 16.90715,-0.003 23.45387,-1.5818 38.5,-9.28195 7.35751,-3.76535 10.73374,-6.34906 18.5,-14.15737 5.225,-5.25329 10.99976,-12.10908 12.8328,-15.23508 14.08396,-24.01826 15.45471,-51.40632 3.73736,-74.67388 C 584.60657,578.24015 583,574.77794 583,574.44551 c 0,-1.86243 83.87485,20.02934 86.39507,22.54956 0.72863,0.72863 1.08232,7.1329 1.03855,18.80493 -0.0519,13.83357 -0.55329,20.32131 -2.29542,29.7 -4.25946,22.93071 -12.87808,44.05046 -25.50516,62.49988 -6.18441,9.03603 -26.46717,29.70684 -36.07259,36.76274 -18.7509,13.77392 -41.59339,23.4783 -65.29869,27.74144 -10.69405,1.9232 -35.06266,2.7096 -45.26176,1.46063 z M 116,403.12699 C 83.667065,396.05824 59.006783,372.97668 50.837005,342.13565 48.012994,331.47497 47.76638,310.48722 50.341895,300 c 2.928691,-11.92532 11.363455,-28.31429 18.67343,-36.28297 11.695191,-12.74905 21.444978,-18.90969 47.638445,-30.10153 90.1296,-38.51022 209.75206,-76.81712 289.19924,-92.61074 94.66275,-18.8184 153.58124,-18.184 227.36937,2.44816 47.82534,13.37262 104.11116,38.12386 150.77762,66.30326 48.5364,29.30856 112.16391,79.13126 161.53199,126.48553 14.38138,13.79474 17.9513,19.37682 17.22515,26.934 -0.55808,5.80806 -2.80278,9.21605 -8.69995,13.20857 -8.58265,5.81066 -15.58529,4.49177 -27.55719,-5.19015 C 904.82291,353.66342 860.92533,322.37811 837.26368,307.59641 765.50764,262.7696 689.60662,231.69657 627.68906,221.7989 616.12257,219.94997 609.52614,219.53159 592,219.53529 c -29.68349,0.006 -46.38699,2.94279 -79.5,13.97634 -47.37264,15.78499 -113.02579,45.17745 -210,94.01553 -42.01434,21.15923 -56.05289,28.57019 -112.5,59.3888 -26.97378,14.72697 -33.98372,17.06414 -53,17.67065 -9.63508,0.3073 -14.44815,-0.0272 -21,-1.45962 z"
       id="path1" />
  </g>
</svg>
