<?xml version="1.0" encoding="UTF-8" standalone="no"?>
<!-- Created with Inkscape (http://www.inkscape.org/) -->

<svg
   version="1.1"
   id="svg1"
   width="1024"
   height="1024"
   viewBox="0 0 1024 1024"
   sodipodi:docname="manicure.png"
   xmlns:inkscape="http://www.inkscape.org/namespaces/inkscape"
   xmlns:sodipodi="http://sodipodi.sourceforge.net/DTD/sodipodi-0.dtd"
   xmlns="http://www.w3.org/2000/svg"
   xmlns:svg="http://www.w3.org/2000/svg">
  <defs
     id="defs1" />
  <sodipodi:namedview
     id="namedview1"
     pagecolor="#ffffff"
     bordercolor="#000000"
     borderopacity="0.25"
     inkscape:showpageshadow="2"
     inkscape:pageopacity="0.0"
     inkscape:pagecheckerboard="0"
     inkscape:deskcolor="#d1d1d1">
    <inkscape:page
       x="0"
       y="0"
       width="1024"
       height="1024"
       id="page2"
       margin="0"
       bleed="0" />
  </sodipodi:namedview>
  <g
     inkscape:groupmode="layer"
     inkscape:label="Image"
     id="g1">
    <path
       style="fill:#000000"
       d="m 311.0082,829.75 c 0.009,-157.70538 -0.007,-157.24704 6.56963,-183.82818 8.88398,-35.905 24.38647,-63.75262 49.97263,-89.76742 l 14.10924,-14.34561 0.20697,-12.65439 c 0.52682,-32.21089 11.96674,-60.05548 34.41858,-83.7743 C 426.77938,434.29378 449.16381,417 453.01942,417 453.62874,417 454,424.86811 454,437.7813 v 20.78131 l -6.04105,5.96869 c -12.22983,12.08337 -22.07614,29.5923 -26.54216,47.19788 l -2.44559,9.6408 0.2644,131.56501 L 419.5,784.5 l 3.10891,6.56077 c 3.67393,7.75314 11.95644,16.62615 18.39109,19.70227 10.68086,5.10604 12.47134,5.23696 71.621,5.23696 51.25917,0 55.63305,-0.13453 61.2541,-1.884 3.32931,-1.03619 8.0345,-3.04506 10.45598,-4.46414 5.93776,-3.47976 13.90055,-12.38668 17.34549,-19.4021 L 604.5,784.5 v -133 -133 l -2.29034,-8 c -4.68457,-16.36287 -14.3917,-32.93869 -26.6733,-45.54711 L 570,459.2692 V 438.1346 C 570,426.51057 570.2329,417 570.51755,417 c 1.39733,0 17.79082,10.85877 23.7795,15.75115 30.10309,24.59231 46.39352,58.30454 47.12218,97.51701 l 0.21869,11.76815 11.4766,11.23185 c 30.27029,29.6247 47.30586,62.37628 56.55632,108.73184 1.5401,7.71767 1.72844,22.42088 2.04635,159.75 L 712.06732,973 H 693.53366 675 V 829.05122 c 0,-156.26237 0.0291,-155.33855 -5.53656,-176.03603 -3.05458,-11.35943 -8.39552,-25.16729 -13.09599,-33.85689 -4.36876,-8.07638 -13.63934,-22.13734 -14.60329,-22.14923 -0.40471,-0.005 -0.67156,43.30343 -0.59301,96.24093 l 0.14283,96.25 -2.27087,7 c -7.62359,23.4999 -25.4752,42.75639 -47.17371,50.88617 -15.15045,5.67641 -15.98847,5.73043 -83.3694,5.37368 -61.22746,-0.32417 -62.09311,-0.35668 -69.47263,-2.60926 -25.17669,-7.68511 -44.08887,-25.4959 -53.00025,-49.91368 -5.0263,-13.77237 -5.35362,-21.31394 -4.72112,-108.77654 0.31438,-43.4718 0.30608,-82.55027 -0.0184,-86.84105 l -0.59002,-7.80142 -5.01827,7.7872 c -14.72841,22.85508 -23.87939,49.70676 -26.6677,78.25085 C 348.38363,689.28462 348,746.26399 348,833.10595 V 973 H 329.5 311 Z m 144.58869,-149.5 c 2.47876,-10.73485 19.46199,-75.96256 29.09616,-111.75 l 7.80695,-29 0.0618,-95 c 0.034,-52.25 -0.12728,-96.0125 -0.35841,-97.25 L 491.78315,345 H 452.89156 414 V 224.44741 C 414,94.431627 413.88892,97.423674 419.17364,85.094913 424.01498,73.800521 434.49222,62.830933 446,57.007911 458.61104,50.626633 458.3259,50.658105 507.33576,50.237969 558.09464,49.80284 562.55021,50.227891 576,56.7884 c 9.99616,4.875906 22.10454,16.812153 26.80581,26.424741 6.36841,13.021352 6.15773,8.210875 6.17683,141.036859 L 609,345 h -39.51361 -39.51362 l 0.42312,96.25 0.42312,96.25 14.00682,53.5 C 566.46309,673.64497 568,679.64047 568,681.40281 c 0,1.47204 -1.66719,1.61857 -15.61625,1.37258 L 536.7675,682.5 529.63375,653.76691 C 525.71019,637.96371 522.275,625.0284 522,625.02177 c -0.275,-0.007 -1.51092,4.37326 -2.74648,9.73309 -1.23557,5.35983 -4.35413,18.40764 -6.93015,28.99514 L 507.6397,683 H 481.3008 454.9619 Z M 570.75487,207.12495 c 0.1715,-66.86601 -0.0876,-100.64698 -0.79208,-103.26313 C 568.66693,99.04935 563.91551,93.507704 558.88452,90.941086 555.29289,89.108775 552.67146,89 512.10494,89 c -24.17272,0 -44.0484,0.408205 -45.42875,0.933013 -4.16906,1.585072 -9.84174,7.287384 -11.80438,11.866037 C 453.08414,105.96951 453,110.6802 453,206.5909 v 100.42509 l 58.75,-0.258 L 570.5,306.5 Z"
       id="path1" />
  </g>
</svg>
