<?xml version="1.0" encoding="UTF-8" standalone="no"?>
<!-- Created with Inkscape (http://www.inkscape.org/) -->

<svg
   version="1.1"
   id="svg1"
   width="1024"
   height="1024"
   viewBox="0 0 1024 1024"
   sodipodi:docname="spa.png"
   xmlns:inkscape="http://www.inkscape.org/namespaces/inkscape"
   xmlns:sodipodi="http://sodipodi.sourceforge.net/DTD/sodipodi-0.dtd"
   xmlns="http://www.w3.org/2000/svg"
   xmlns:svg="http://www.w3.org/2000/svg">
  <defs
     id="defs1" />
  <sodipodi:namedview
     id="namedview1"
     pagecolor="#ffffff"
     bordercolor="#000000"
     borderopacity="0.25"
     inkscape:showpageshadow="2"
     inkscape:pageopacity="0.0"
     inkscape:pagecheckerboard="0"
     inkscape:deskcolor="#d1d1d1">
    <inkscape:page
       x="0"
       y="0"
       width="1024"
       height="1024"
       id="page2"
       margin="0"
       bleed="0" />
  </sodipodi:namedview>
  <g
     inkscape:groupmode="layer"
     inkscape:label="Image"
     id="g1">
    <path
       style="fill:#000000"
       d="m 273.0941,785.95981 c -11.11858,-2.28841 -24.79141,-11.24676 -35.03229,-22.95294 -20.6941,-23.65508 -73.2169,-92.03591 -77.21619,-100.52983 -3.79874,-8.06795 -4.52518,-13.95784 -2.48069,-20.11321 2.36952,-7.13398 25.17512,-36.70165 49.87901,-64.66859 43.39891,-49.13134 84.27717,-70.95704 132.74183,-70.87344 16.59267,0.0286 26.51098,1.58998 55.02523,8.66217 12.22589,3.0323 24.98421,6.03972 28.35183,6.68315 4.06219,0.77613 28.67257,1.38009 73.12294,1.79451 66.43059,0.61933 67.05949,0.64423 74,2.9292 11.19199,3.68467 18.4498,8.04652 26,15.62566 9.83865,9.87636 16.4512,23.3753 18.97494,38.73563 l 0.61648,3.75212 26.20429,-19.86177 c 14.41236,-10.92397 36.32929,-27.60543 48.70429,-37.06991 46.79195,-35.78677 61.69857,-43.18799 84,-41.70645 16.61422,1.10373 29.22447,6.90201 41.60348,19.12956 12.4125,12.26064 18.40929,26.27496 18.38465,42.96443 -0.0134,9.11542 -1.64237,16.23314 -5.58608,24.40894 -3.94487,8.17822 -18.07852,21.80108 -58.83626,56.70993 -19.21382,16.45657 -36.76382,31.48931 -39,33.40609 -42.9499,36.8152 -74.36339,63.46695 -83.56579,70.89866 -27.08,21.86937 -47.48078,32.53747 -72.3407,37.82885 -11.20351,2.38464 -37.58791,2.36309 -55.6593,-0.0455 -110.50235,-14.72776 -131.18425,-16.97789 -157,-17.08112 -20.83012,-0.0833 -21.67136,-0.009 -27,2.39249 -3.025,1.36316 -11.125,6.69479 -18,11.84807 -6.875,5.15328 -14.3,10.41201 -16.5,11.68607 -8.06263,4.6692 -21.2747,7.11781 -29.39167,5.4472 z m 19.06259,-47.28162 c 16.72493,-13.12635 26.89732,-18.87759 39.32908,-22.23579 16.92278,-4.57137 58.60587,-1.97486 137,8.53396 25.88697,3.47018 67.25415,8.60195 76.5,9.49014 14.02529,1.34733 33.74984,-2.80902 48.5,-10.21989 19.40514,-9.74966 34.99453,-22.4823 168.3124,-137.4692 34.41393,-29.68207 35.86487,-31.37715 34.95585,-40.83745 C 795.61641,534.10063 785.92919,526 772.9086,526 c -14.58828,0 -17.9401,2.18173 -98.42283,64.06419 -60.59735,46.59278 -70.04013,52.98854 -86.61443,58.66548 -13.84578,4.74238 -26.18662,5.43517 -90.38557,5.07407 l -54,-0.30374 -4.51075,-2.65194 c -5.5138,-3.24166 -8.94693,-8.97023 -9.65836,-16.11608 -0.73051,-7.33745 3.30599,-15.08548 9.59044,-18.40878 l 4.39324,-2.3232 52.09271,-0.0201 c 28.651,-0.0111 54.93485,-0.43107 58.40857,-0.93335 6.60926,-0.95568 13.03386,-3.73728 17.0665,-7.38914 5.87012,-5.31585 8.59796,-16.78851 6.11605,-25.72275 -1.3826,-4.97703 -7.12602,-11.32657 -12.75107,-14.09674 l -4.74733,-2.33791 -67,-0.56065 c -74.09266,-0.61999 -69.31114,-0.24531 -101.5,-7.95364 -27.49816,-6.58504 -35.01886,-7.97788 -46.6766,-8.6446 -28.71229,-1.64206 -56.42683,9.32751 -83.06065,32.8759 -13.46705,11.90694 -37.73927,39.25462 -55.4557,62.48233 l -7.0166,9.19934 8.0303,10.30066 c 25.10415,32.20168 33.53944,42.81972 45.23577,56.94116 C 267.1365,736.36435 276.95943,746 280.44327,746 c 1.44591,0 6.05607,-2.88171 11.71342,-7.32181 z m 235.82908,-240.7603 c -17.83488,-0.75443 -36.53675,-2.82562 -50,-5.53738 -36.19028,-7.28942 -72.68571,-23.34062 -95.87456,-42.16697 C 366.855,437.82747 374.66812,414 393.98577,414 c 5.37762,0 9.5542,1.85025 18.81222,8.33393 21.56972,15.10596 47.54133,26.1329 74.54786,31.6513 14.87758,3.04003 14.6432,3.21366 7.74186,-5.73523 -27.11509,-35.15983 -43.02997,-79.86863 -44.3665,-124.63634 l -0.23544,-7.88634 -12,-6.85719 c -36.68823,-20.96486 -78.49704,-34.10001 -99.99137,-31.41447 -8.01055,1.00085 -10.50863,3.58921 -10.50863,10.88842 0,15.65422 8.1142,42.29351 20.89615,68.60302 4.80401,9.88826 5.34903,15.84926 2.06868,22.62555 -5.87658,12.1394 -24.29855,14.13848 -33.16683,3.59913 -4.63827,-5.51227 -17.9529,-37.30435 -23.15165,-55.28047 -6.09625,-21.07949 -7.68196,-45.50702 -3.76052,-57.93 9.04295,-28.64778 40.51064,-38.02534 91.61147,-27.30075 18.73947,3.93288 48.27748,15.77379 63.50568,25.45756 3.02336,1.92259 6.02636,3.81358 6.67333,4.20222 0.80657,0.4845 1.53025,-1.10497 2.30239,-5.05687 4.53432,-23.20739 17.36065,-55.23553 30.34103,-75.76347 14.80784,-23.418 29.93572,-37.69422 45.68027,-43.10861 7.98874,-2.74724 22.62707,-2.53008 29.82956,0.44253 22.06496,9.10664 43.59818,35.32282 59.85222,72.86864 19.7078,45.52379 24.87713,97.3585 14.26233,143.01356 -6.67376,28.70435 -22.36363,62.87804 -38.89833,84.7234 L 591.06594,456 h 2.944 c 1.6192,0 8.45618,-1.16383 15.1933,-2.58629 46.73091,-9.86664 86.22064,-33.48089 111.89875,-66.91371 22.84047,-29.73822 40.78773,-71.38272 40.86214,-94.81574 0.0119,-3.74866 -0.46458,-7.72426 -1.05885,-8.83466 -3.14805,-5.88218 -15.61215,-6.35616 -35.49052,-1.3496 -18.38566,4.6306 -24.18907,4.49565 -31.70163,-0.73717 -6.7541,-4.70452 -9.31208,-17.2337 -5.15771,-25.26283 4.07049,-7.867 10.95155,-10.86829 34.43035,-15.01736 40.45192,-7.1485 67.74394,2.28706 76.1993,26.34407 2.57438,7.32458 3.37755,21.23775 1.88614,32.67329 -6.75902,51.82547 -39.92274,110.43893 -83.08333,146.84125 -36.14109,30.48197 -87.84306,49.11618 -142.00211,51.17979 -7.425,0.28292 -17.325,0.65451 -22,0.82576 -4.675,0.17125 -16.375,-0.0218 -26,-0.42891 z M 550.62348,440.75 c 11.7032,-12.12016 23.62899,-29.43983 31.7087,-46.05012 25.09527,-51.59092 23.66343,-113.7084 -3.89317,-168.89721 -7.02637,-14.07201 -13.58475,-23.89636 -21.00697,-31.46809 -9.66449,-9.85919 -15.12431,-9.97804 -24.73586,-0.53847 -20.15549,19.79484 -37.20482,61.08465 -41.77889,101.17948 -1.79052,15.69516 -0.68361,40.5968 2.47122,55.59391 6.20786,29.51025 20.70896,59.93221 39.08854,82.00412 6.19784,7.44294 11.67954,13.28758 12.54288,13.37333 0.29379,0.0292 2.81539,-2.30945 5.60355,-5.19695 z"
       id="path1" />
  </g>
</svg>
